<svg xmlns="http://www.w3.org/2000/svg" xmlns:xlink="http://www.w3.org/1999/xlink" width="500" zoomAndPan="magnify" viewBox="0 0 375 374.999991" height="500" preserveAspectRatio="xMidYMid meet" version="1.0"><defs><clipPath id="3f83efc343"><path d="M 112.5 112.5 L 262.5 112.5 L 262.5 262.5 L 112.5 262.5 Z M 112.5 112.5 " clip-rule="nonzero"/></clipPath></defs><g clip-path="url(#3f83efc343)"><path fill="#231f20" d="M 184.054688 195.5625 C 174.882812 194.101562 167.347656 186.859375 165.480469 177.804688 C 163.609375 168.574219 167.875 158.878906 175.933594 153.972656 C 184.054688 149.066406 194.625 149.824219 201.925781 155.898438 C 209.171875 161.914062 212.03125 172.078125 208.761719 180.957031 C 205.550781 189.777344 196.960938 195.851562 187.558594 195.851562 C 186.449219 195.851562 185.222656 195.734375 184.054688 195.5625 Z M 176.109375 261.625 C 168.574219 260.457031 161.214844 258.121094 154.378906 254.671875 C 147.664062 251.34375 141.472656 246.960938 136.097656 241.824219 C 130.664062 236.625 126.050781 230.664062 122.371094 224.066406 C 118.632812 217.40625 115.945312 210.164062 114.425781 202.6875 C 112.851562 194.917969 112.5 186.972656 113.433594 179.089844 C 114.3125 171.4375 116.355469 163.960938 119.566406 156.949219 C 122.664062 150.117188 126.8125 143.691406 131.835938 138.085938 C 136.800781 132.476562 142.640625 127.628906 149.007812 123.714844 C 155.492188 119.800781 162.558594 116.824219 169.917969 115.011719 C 177.570312 113.140625 185.515625 112.5 193.339844 113.085938 C 201.050781 113.667969 208.703125 115.480469 215.828125 118.398438 C 222.78125 121.261719 229.324219 125.175781 235.105469 129.964844 C 240.886719 134.753906 245.910156 140.363281 250 146.613281 C 254.148438 152.921875 257.359375 159.871094 259.402344 167.171875 C 261.566406 174.765625 262.5 182.652344 262.207031 190.539062 C 261.914062 198.304688 260.398438 206.074219 257.710938 213.375 C 255.140625 220.445312 251.460938 227.101562 246.847656 233.0625 C 242.289062 238.960938 236.859375 244.21875 230.78125 248.597656 C 224.648438 252.980469 217.816406 256.425781 210.628906 258.820312 C 203.210938 261.273438 195.386719 262.5 187.558594 262.5 C 183.761719 262.5 179.90625 262.207031 176.109375 261.625 Z M 183.703125 117.757812 C 173.480469 118.339844 163.492188 121.144531 154.496094 125.992188 C 145.734375 130.722656 138.027344 137.324219 131.949219 145.269531 C 125.816406 153.269531 121.496094 162.617188 119.277344 172.488281 C 116.824219 183.644531 117.113281 195.328125 120.09375 206.367188 C 123.246094 217.875 129.378906 228.445312 137.792969 236.914062 C 138.199219 235.980469 138.609375 235.046875 139.019531 234.113281 C 142.582031 226.753906 147.78125 220.269531 154.207031 215.246094 C 160.6875 210.164062 168.28125 206.601562 176.285156 204.847656 C 184.695312 203.039062 193.515625 203.328125 201.8125 205.550781 C 209.695312 207.710938 217.054688 211.683594 223.246094 217.113281 C 229.378906 222.546875 234.289062 229.324219 237.441406 236.914062 C 238.433594 235.863281 239.425781 234.8125 240.421875 233.703125 C 248.246094 224.707031 253.679688 213.785156 256.132812 202.160156 C 258.410156 191.179688 258.0625 179.671875 255.082031 168.867188 C 252.394531 159.171875 247.546875 150.117188 241.0625 142.464844 C 234.636719 134.871094 226.578125 128.679688 217.640625 124.359375 C 208.292969 119.917969 198.015625 117.582031 187.675781 117.582031 C 186.332031 117.640625 184.988281 117.699219 183.703125 117.757812 Z M 183.703125 117.757812 " fill-opacity="1" fill-rule="nonzero"/></g></svg>